HIERARCHY
ROOT Hips
{
    OFFSET   0.000000   0.000000   0.000000
    CHANNELS 6 Xposition Yposition Zposition Zrotation Xrotation Yrotation
    JOINT Chest
    {
        OFFSET   0.000000   8.007230   0.000000
        CHANNELS 3 Zrotation Xrotation Yrotation
        JOINT Chest2
        {
            OFFSET   0.000000  22.077100   0.000000
            CHANNELS 3 Zrotation Xrotation Yrotation
            JOINT Neck
            {
                OFFSET   0.000000  23.255100   0.000000
                CHANNELS 3 Zrotation Xrotation Yrotation
                JOINT Head
                {
                    OFFSET   0.000000  14.370100   1.956600
                    CHANNELS 3 Zrotation Xrotation Yrotation
                    End Site
                    {
                        OFFSET   0.000000  19.566000   0.000000
                    }
                }
            }
            JOINT LeftCollar
            {
                OFFSET   3.911900  19.017000  -0.467063
                CHANNELS 3 Zrotation Xrotation Yrotation
                JOINT LeftShoulder
                {
                    OFFSET  10.383700   0.000000   0.000000
                    CHANNELS 3 Zrotation Xrotation Yrotation
                    JOINT LeftElbow
                    {
                        OFFSET  26.662100   0.001193   0.000980
                        CHANNELS 3 Zrotation Xrotation Yrotation
                        JOINT LeftWrist
                        {
                            OFFSET  28.869000  -0.000059  -0.000082
                            CHANNELS 3 Zrotation Xrotation Yrotation
                            JOINT LeftFinger0
                            {
                                OFFSET   2.044650  -2.323450   3.252850
                                CHANNELS 3 Zrotation Xrotation Yrotation
                                JOINT LeftFinger01
                                {
                                    OFFSET   3.088130   0.000000   0.000000
                                    CHANNELS 3 Zrotation Xrotation Yrotation
                                    JOINT LeftFinger02
                                    {
                                        OFFSET   2.639460   0.000000   0.000000
                                        CHANNELS 3 Zrotation Xrotation Yrotation
                                        End Site
                                        {
                                            OFFSET   2.582190   0.000000   0.000000
                                        }
                                    }
                                }
                            }
                            JOINT LeftFinger1
                            {
                                OFFSET   8.364480   0.000000   3.252850
                                CHANNELS 3 Zrotation Xrotation Yrotation
                                JOINT LeftFinger11
                                {
                                    OFFSET   4.646930   0.000000   0.000000
                                    CHANNELS 3 Zrotation Xrotation Yrotation
                                    JOINT LeftFinger12
                                    {
                                        OFFSET   2.323470   0.000000   0.000000
                                        CHANNELS 3 Zrotation Xrotation Yrotation
                                        End Site
                                        {
                                            OFFSET   2.273050   0.000000   0.000000
                                        }
                                    }
                                }
                            }
                            JOINT LeftFinger2
                            {
                                OFFSET   8.364490   0.000016   1.078090
                                CHANNELS 3 Zrotation Xrotation Yrotation
                                JOINT LeftFinger21
                                {
                                    OFFSET   5.111610   0.000000   0.000000
                                    CHANNELS 3 Zrotation Xrotation Yrotation
                                    JOINT LeftFinger22
                                    {
                                        OFFSET   2.788150   0.000016   0.000000
                                        CHANNELS 3 Zrotation Xrotation Yrotation
                                        End Site
                                        {
                                            OFFSET   2.727660   0.000000   0.000000
                                        }
                                    }
                                }
                            }
                            JOINT LeftFinger3
                            {
                                OFFSET   7.899780   0.000015  -1.078090
                                CHANNELS 3 Zrotation Xrotation Yrotation
                                JOINT LeftFinger31
                                {
                                    OFFSET   4.646930   0.000000   0.000000
                                    CHANNELS 3 Zrotation Xrotation Yrotation
                                    JOINT LeftFinger32
                                    {
                                        OFFSET   2.323470   0.000000   0.000000
                                        CHANNELS 3 Zrotation Xrotation Yrotation
                                        End Site
                                        {
                                            OFFSET   2.273050   0.000000   0.000000
                                        }
                                    }
                                }
                            }
                            JOINT LeftFinger4
                            {
                                OFFSET   7.435090   0.000000  -3.252850
                                CHANNELS 3 Zrotation Xrotation Yrotation
                                JOINT LeftFinger41
                                {
                                    OFFSET   3.717550   0.000000   0.000000
                                    CHANNELS 3 Zrotation Xrotation Yrotation
                                    JOINT LeftFinger42
                                    {
                                        OFFSET   1.858770   0.000000   0.000000
                                        CHANNELS 3 Zrotation Xrotation Yrotation
                                        End Site
                                        {
                                            OFFSET   1.818440   0.000000   0.000000
                                        }
                                    }
                                }
                            }
                        }
                    }
                }
            }
            JOINT RightCollar
            {
                OFFSET  -3.911910  19.017000  -0.467062
                CHANNELS 3 Zrotation Xrotation Yrotation
                JOINT RightShoulder
                {
                    OFFSET -10.383700   0.000014   0.000000
                    CHANNELS 3 Zrotation Xrotation Yrotation
                    JOINT RightElbow
                    {
                        OFFSET -26.662100   0.001225   0.001091
                        CHANNELS 3 Zrotation Xrotation Yrotation
                        JOINT RightWrist
                        {
                            OFFSET -28.869000  -0.000020  -0.000085
                            CHANNELS 3 Zrotation Xrotation Yrotation
                            JOINT RightFinger0
                            {
                                OFFSET  -2.044650  -2.323490   3.252850
                                CHANNELS 3 Zrotation Xrotation Yrotation
                                JOINT RightFinger01
                                {
                                    OFFSET  -3.088130   0.000000   0.000000
                                    CHANNELS 3 Zrotation Xrotation Yrotation
                                    JOINT RightFinger02
                                    {
                                        OFFSET  -2.639460   0.000000   0.000000
                                        CHANNELS 3 Zrotation Xrotation Yrotation
                                        End Site
                                        {
                                            OFFSET  -2.582190   0.000000   0.000000
                                        }
                                    }
                                }
                            }
                            JOINT RightFinger1
                            {
                                OFFSET  -8.364480   0.000000   3.252850
                                CHANNELS 3 Zrotation Xrotation Yrotation
                                JOINT RightFinger11
                                {
                                    OFFSET  -4.646930   0.000000   0.000000
                                    CHANNELS 3 Zrotation Xrotation Yrotation
                                    JOINT RightFinger12
                                    {
                                        OFFSET  -2.323470   0.000000   0.000000
                                        CHANNELS 3 Zrotation Xrotation Yrotation
                                        End Site
                                        {
                                            OFFSET  -2.273050   0.000000   0.000000
                                        }
                                    }
                                }
                            }
                            JOINT RightFinger2
                            {
                                OFFSET  -8.364480   0.000000   1.078090
                                CHANNELS 3 Zrotation Xrotation Yrotation
                                JOINT RightFinger21
                                {
                                    OFFSET  -5.111620   0.000000   0.000000
                                    CHANNELS 3 Zrotation Xrotation Yrotation
                                    JOINT RightFinger22
                                    {
                                        OFFSET  -2.788160   0.000000   0.000000
                                        CHANNELS 3 Zrotation Xrotation Yrotation
                                        End Site
                                        {
                                            OFFSET  -2.727660   0.000000   0.000000
                                        }
                                    }
                                }
                            }
                            JOINT RightFinger3
                            {
                                OFFSET  -7.899780   0.000000  -1.078090
                                CHANNELS 3 Zrotation Xrotation Yrotation
                                JOINT RightFinger31
                                {
                                    OFFSET  -4.646930   0.000000   0.000000
                                    CHANNELS 3 Zrotation Xrotation Yrotation
                                    JOINT RightFinger32
                                    {
                                        OFFSET  -2.323470   0.000000   0.000000
                                        CHANNELS 3 Zrotation Xrotation Yrotation
                                        End Site
                                        {
                                            OFFSET  -2.273050   0.000000   0.000000
                                        }
                                    }
                                }
                            }
                            JOINT RightFinger4
                            {
                                OFFSET  -7.435090   0.000000  -3.252850
                                CHANNELS 3 Zrotation Xrotation Yrotation
                                JOINT RightFinger41
                                {
                                    OFFSET  -3.717550   0.000000   0.000000
                                    CHANNELS 3 Zrotation Xrotation Yrotation
                                    JOINT RightFinger42
                                    {
                                        OFFSET  -1.858760   0.000000   0.000000
                                        CHANNELS 3 Zrotation Xrotation Yrotation
                                        End Site
                                        {
                                            OFFSET  -1.818440   0.000000   0.000000
                                        }
                                    }
                                }
                            }
                        }
                    }
                }
            }
        }
    }
    JOINT LeftHip
    {
        OFFSET   9.783030   0.000000   0.000000
        CHANNELS 3 Zrotation Xrotation Yrotation
        JOINT LeftKnee
        {
            OFFSET   0.000063 -41.789100   0.000608
            CHANNELS 3 Zrotation Xrotation Yrotation
            JOINT LeftAnkle
            {
                OFFSET   0.000048 -41.133200  -0.000184
                CHANNELS 3 Zrotation Xrotation Yrotation
                JOINT LeftToe
                {
                    OFFSET   0.000000  -6.358960  14.674500
                    CHANNELS 3 Zrotation Xrotation Yrotation
                    End Site
                    {
                        OFFSET   0.000000   0.000000   3.913200
                    }
                }
            }
        }
    }
    JOINT RightHip
    {
        OFFSET  -9.783030   0.000000   0.000000
        CHANNELS 3 Zrotation Xrotation Yrotation
        JOINT RightKnee
        {
            OFFSET   0.000071 -41.789100   0.001239
            CHANNELS 3 Zrotation Xrotation Yrotation
            JOINT RightAnkle
            {
                OFFSET   0.000037 -41.133200  -0.000166
                CHANNELS 3 Zrotation Xrotation Yrotation
                JOINT RightToe
                {
                    OFFSET   0.000000  -6.358960  14.674500
                    CHANNELS 3 Zrotation Xrotation Yrotation
                    End Site
                    {
                        OFFSET   0.000000   0.000000   3.913200
                    }
                }
            }
        }
    }
}
MOTION
Frames: 4
Frame Time:   0.016667
  3.872970  89.474000  -0.129795  -4.982830  -9.985200  -8.633630   0.626590   6.313930   1.455200   1.100660  12.641600   2.866730   0.750441  -0.733334   0.005127   1.233460  -1.489470   3.123440  -6.208920  -1.821290   0.020289 -70.270600  24.085400  -3.536180  -2.613660  -7.142020 -16.216900  16.534300 -15.997300   9.567400  39.251300  33.572200 -61.015700 -32.843400  -0.003591   0.001534 -11.424400   0.000286  -0.014267 -35.481800   6.225590  -8.648290 -29.412900  -0.001915   0.001745 -20.589300  -0.003810   0.000739 -29.674900  -1.026400   1.799790 -44.551400  -0.006653   0.004551 -29.661900  -0.001159  -0.000649 -28.779200  -0.997933   1.815720 -43.127900  -0.001870   0.006524 -28.723200  -0.001489  -0.002716 -34.587200  -1.176390   1.705570 -51.907300  -0.002880   0.004413 -34.570200  -0.003166   0.001357  12.767300   0.652285   7.560420  65.496900  15.103700  -4.931410  -3.742230  -0.639120  17.648600 -12.083000 -11.615500  -1.149220 -43.679000  40.816800  75.780700  31.010100  -0.001847  -0.007104  10.495800  -0.000360  -0.000617  35.840200   7.344000  10.035900  29.863100  -0.004630   0.001125  20.904200  -0.003746  -0.007472  28.708900  -1.239430  -2.279590  39.607100   0.011201   0.012027  26.378300   0.010369  -0.000456  27.548500  -4.533030  -8.623850  31.312000   0.000667   0.009742  20.853800   0.000326  -0.001502  36.200800  -5.788530  -7.843850  54.897100  -0.000947   0.003464  36.561500   0.006475  -0.004057   1.821520  12.607100   5.351990   0.385385   0.101800   6.266610   0.153433  -3.510380   6.043600   0.000000   0.000000  -0.000000   2.967250   6.286910  -4.110250  -3.625360   8.603840  -8.132550   1.966860  -4.958510   5.281200  -0.000000   0.000000   0.000000
  3.873020  89.474000  -0.128669  -4.979340  -9.978020  -8.619510   0.626654   6.313970   1.456080   1.100690  12.641600   2.868510   0.740176  -0.734159   0.005123   1.216560  -1.489980   3.119550  -6.208960  -1.810470   0.012774 -70.275600  24.075000  -3.525720  -2.620880  -7.150300 -16.190200  16.535800 -15.992500   9.575460  39.237800  33.558300 -61.008800 -32.849100  -0.003587   0.001536 -11.424500   0.000280  -0.014269 -35.481800   6.225590  -8.648550 -29.413000  -0.001911   0.001747 -20.589600  -0.003810   0.000741 -29.674700  -1.025370   1.797990 -44.551400  -0.006651   0.004558 -29.661700  -0.001158  -0.000643 -28.779200  -0.996935   1.813910 -43.125400  -0.001866   0.006531 -28.721600  -0.001487  -0.002713 -34.587200  -1.175250   1.703840 -51.907300  -0.002881   0.004417 -34.570200  -0.003168   0.001359  12.773800   0.659003   7.551620  65.518700  15.068000  -4.967080  -3.715430  -0.643665  17.618100 -12.082400 -11.602400  -1.149160 -43.678700  40.811600  75.763200  31.005000  -0.001849  -0.007103  10.496100  -0.000348  -0.000625  35.840100   7.366570  10.066000  29.863000  -0.004637   0.001125  20.904100  -0.003750  -0.007472  28.709100  -1.239440  -2.273540  39.637800   0.011199   0.012028  26.398700   0.010369  -0.000455  27.556200  -4.533200  -8.619080  31.358700   0.000664   0.009739  20.884900   0.000323  -0.001501  36.226000  -5.788700  -7.837530  54.934400  -0.000950   0.003467  36.586300   0.006480  -0.004059   1.823330  12.591900   5.351690   0.385878   0.121372   6.269880   0.151788  -3.523330   6.035580   0.000000   0.000000   0.000000   2.963270   6.285770  -4.110230  -3.623380   8.596540  -8.152440   1.967110  -4.958210   5.281200  -0.000000   0.000000  -0.000000
  3.873110  89.473900  -0.125653  -4.973830  -9.964820  -8.598620   0.626743   6.314010   1.457850   1.100650  12.641700   2.872130   0.723963  -0.736863   0.005120   1.189870  -1.493490   3.113550  -6.209130  -1.793210   0.000919 -70.284100  24.056000  -3.508300  -2.634050  -7.166990 -16.146000  16.536200 -15.981200   9.583200  39.225600  33.542600 -61.004100 -32.854800  -0.003584   0.001540 -11.424700   0.000274  -0.014275 -35.481600   6.225560  -8.650350 -29.413300  -0.001899   0.001752 -20.589800  -0.003811   0.000745 -29.674700  -1.021890   1.791980 -44.551400  -0.006645   0.004576 -29.661500  -0.001156  -0.000628 -28.779400  -0.993593   1.807820 -43.119000  -0.001856   0.006550 -28.717200  -0.001482  -0.002705 -34.587500  -1.171320   1.698110 -51.907300  -0.002881   0.004429 -34.570200  -0.003173   0.001365  12.783500   0.665730   7.537750  65.551500  15.016200  -5.022900  -3.671850  -0.655885  17.568900 -12.081700 -11.589400  -1.149110 -43.678400  40.806500  75.745700  30.996200  -0.001852  -0.007103  10.496400  -0.000329  -0.000638  35.839900   7.398470  10.108500  29.862800  -0.004650   0.001124  20.903900  -0.003760  -0.007475  28.709300  -1.239450  -2.262180  39.685100   0.011194   0.012028  26.430200   0.010367  -0.000450  27.568300  -4.533400  -8.611740  31.431400   0.000657   0.009732  20.933300   0.000316  -0.001498  36.264000  -5.788920  -7.827900  54.990700  -0.000957   0.003478  36.623800   0.006491  -0.004066   1.826100  12.566700   5.351210   0.387100   0.150580   6.274680   0.148378  -3.542300   6.021560   0.000000   0.000000   0.000000   2.957370   6.284200  -4.110180  -3.622000   8.582020  -8.176070   1.967370  -4.957900   5.281210   0.000000   0.000000   0.000000
  3.873240  89.473900  -0.120655  -4.970060  -9.951400  -8.587440   0.626840   6.311680   1.459960   1.100660  12.637000   2.876400   0.712790  -0.742081   0.005123   1.171520  -1.503760   3.109020  -6.210820  -1.781570  -0.006971 -70.290800  24.039200  -3.494470  -2.647480  -7.188640 -16.110100  16.531800 -15.965400   9.577110  39.232700  33.549700 -61.020800 -32.849400  -0.003587   0.001543 -11.424900   0.000274  -0.014280 -35.476100   6.231950  -8.661570 -29.413600  -0.001876   0.001763 -20.587700  -0.003816   0.000746 -29.675200  -1.014530   1.779060 -44.545700  -0.006633   0.004604 -29.661500  -0.001152  -0.000605 -28.779900  -0.986572   1.794710 -43.107200  -0.001841   0.006579 -28.709400  -0.001471  -0.002690 -34.584100  -1.162690   1.685870 -51.901800  -0.002881   0.004446 -34.566500  -0.003178   0.001375  12.788100   0.665318   7.528500  65.569600  14.992400  -5.059320  -3.637680  -0.677558  17.531300 -12.082100 -11.599100  -1.150510 -43.693100  40.818400  75.761200  30.988400  -0.001856  -0.007088  10.494200  -0.000321  -0.000644  35.839300   7.413210  10.128300  29.862500  -0.004660   0.001124  20.903800  -0.003774  -0.007481  28.709700  -1.234800  -2.250930  39.715800   0.011188   0.012028  26.450700   0.010362  -0.000438  27.576300  -4.533410  -8.608140  31.479300   0.000645   0.009725  20.965200   0.000305  -0.001493  36.285900  -5.788970  -7.822980  55.023000  -0.000966   0.003494  36.645300   0.006509  -0.004079   1.827720  12.545200   5.350880   0.389559   0.169372   6.277530   0.144286  -3.551980   6.007980   0.000000   0.000000   0.000000   2.953700   6.283900  -4.110150  -3.624870   8.563460  -8.179180   1.966540  -4.957970   5.276620  -0.000000   0.000000   0.000000
